<mxfile host="app.diagrams.net" modified="2024-07-20T23:22:21.681Z" agent="Mozilla/5.0 (Windows NT 10.0; Win64; x64) AppleWebKit/537.36 (KHTML, like Gecko) Chrome/126.0.0.0 Safari/537.36 Edg/126.0.0.0" etag="Fg5a7Pfe_J6_e2-RvTSi" version="24.6.5" type="device">
  <diagram name="Page-1" id="7GMmYjpLHvYeKRx0qmcb">
    <mxGraphModel dx="945" dy="689" grid="1" gridSize="10" guides="1" tooltips="1" connect="1" arrows="1" fold="1" page="1" pageScale="1" pageWidth="850" pageHeight="1100" math="0" shadow="0">
      <root>
        <mxCell id="0" />
        <mxCell id="1" parent="0" />
        <mxCell id="Jx2uDM19GwoM_w4hmKZA-32" value="" style="rounded=1;whiteSpace=wrap;html=1;fillColor=none;" vertex="1" parent="1">
          <mxGeometry x="130" y="300" width="350" height="420" as="geometry" />
        </mxCell>
        <mxCell id="Jx2uDM19GwoM_w4hmKZA-14" style="edgeStyle=orthogonalEdgeStyle;rounded=0;orthogonalLoop=1;jettySize=auto;html=1;flowAnimation=1;entryX=0.5;entryY=0;entryDx=0;entryDy=0;" edge="1" parent="1" source="Jx2uDM19GwoM_w4hmKZA-9" target="Jx2uDM19GwoM_w4hmKZA-7">
          <mxGeometry relative="1" as="geometry">
            <mxPoint x="304" y="300" as="targetPoint" />
          </mxGeometry>
        </mxCell>
        <mxCell id="Jx2uDM19GwoM_w4hmKZA-9" value="" style="rounded=1;whiteSpace=wrap;html=1;glass=0;fillColor=none;" vertex="1" parent="1">
          <mxGeometry x="178" y="100" width="252" height="120" as="geometry" />
        </mxCell>
        <mxCell id="Jx2uDM19GwoM_w4hmKZA-1" value="&lt;b&gt;Database&lt;/b&gt;" style="shape=cylinder3;whiteSpace=wrap;html=1;boundedLbl=1;backgroundOutline=1;size=15;fillColor=#496dc7;gradientColor=#FFFFFF;gradientDirection=north;" vertex="1" parent="1">
          <mxGeometry x="274" y="600" width="60" height="80" as="geometry" />
        </mxCell>
        <mxCell id="Jx2uDM19GwoM_w4hmKZA-2" value="" style="image;aspect=fixed;html=1;points=[];align=center;fontSize=12;image=img/lib/azure2/networking/DNS_Zones.svg;" vertex="1" parent="1">
          <mxGeometry x="670" y="98.63" width="124.25" height="124.25" as="geometry" />
        </mxCell>
        <mxCell id="Jx2uDM19GwoM_w4hmKZA-4" value="" style="image;aspect=fixed;perimeter=ellipsePerimeter;html=1;align=center;shadow=0;dashed=0;spacingTop=3;image=img/lib/active_directory/laptop_client.svg;" vertex="1" parent="1">
          <mxGeometry x="300" y="115.75" width="81" height="90" as="geometry" />
        </mxCell>
        <mxCell id="Jx2uDM19GwoM_w4hmKZA-6" value="" style="html=1;verticalLabelPosition=bottom;align=center;labelBackgroundColor=#ffffff;verticalAlign=top;strokeWidth=2;strokeColor=#0080F0;shadow=0;dashed=0;shape=mxgraph.ios7.icons.smartphone;" vertex="1" parent="1">
          <mxGeometry x="223.8" y="115.75" width="58" height="90" as="geometry" />
        </mxCell>
        <mxCell id="Jx2uDM19GwoM_w4hmKZA-7" value="&lt;b&gt;Web Server&lt;/b&gt;" style="image;aspect=fixed;perimeter=ellipsePerimeter;html=1;align=center;shadow=0;dashed=0;spacingTop=3;image=img/lib/active_directory/windows_server.svg;" vertex="1" parent="1">
          <mxGeometry x="238.4" y="310" width="131.2" height="160" as="geometry" />
        </mxCell>
        <mxCell id="Jx2uDM19GwoM_w4hmKZA-10" style="edgeStyle=orthogonalEdgeStyle;rounded=0;orthogonalLoop=1;jettySize=auto;html=1;exitX=1;exitY=0.5;exitDx=0;exitDy=0;flowAnimation=1;" edge="1" parent="1" source="Jx2uDM19GwoM_w4hmKZA-9" target="Jx2uDM19GwoM_w4hmKZA-2">
          <mxGeometry relative="1" as="geometry" />
        </mxCell>
        <mxCell id="Jx2uDM19GwoM_w4hmKZA-12" value="" style="endArrow=classic;html=1;rounded=0;entryX=1;entryY=0.75;entryDx=0;entryDy=0;flowAnimation=1;" edge="1" parent="1" target="Jx2uDM19GwoM_w4hmKZA-9">
          <mxGeometry width="50" height="50" relative="1" as="geometry">
            <mxPoint x="680" y="190" as="sourcePoint" />
            <mxPoint x="440" y="194" as="targetPoint" />
            <Array as="points">
              <mxPoint x="560" y="190" />
            </Array>
          </mxGeometry>
        </mxCell>
        <mxCell id="Jx2uDM19GwoM_w4hmKZA-18" value="" style="endArrow=classic;html=1;rounded=0;entryX=0.75;entryY=1;entryDx=0;entryDy=0;exitX=0.952;exitY=0.011;exitDx=0;exitDy=0;exitPerimeter=0;flowAnimation=1;" edge="1" parent="1" source="Jx2uDM19GwoM_w4hmKZA-7" target="Jx2uDM19GwoM_w4hmKZA-9">
          <mxGeometry width="50" height="50" relative="1" as="geometry">
            <mxPoint x="330" y="290" as="sourcePoint" />
            <mxPoint x="380" y="240" as="targetPoint" />
          </mxGeometry>
        </mxCell>
        <mxCell id="Jx2uDM19GwoM_w4hmKZA-19" value="" style="endArrow=classic;html=1;rounded=0;exitX=0;exitY=1;exitDx=0;exitDy=0;entryX=0.145;entryY=0;entryDx=0;entryDy=4.35;entryPerimeter=0;flowAnimation=1;" edge="1" parent="1" source="Jx2uDM19GwoM_w4hmKZA-7" target="Jx2uDM19GwoM_w4hmKZA-1">
          <mxGeometry width="50" height="50" relative="1" as="geometry">
            <mxPoint x="400" y="350" as="sourcePoint" />
            <mxPoint x="450" y="300" as="targetPoint" />
          </mxGeometry>
        </mxCell>
        <mxCell id="Jx2uDM19GwoM_w4hmKZA-20" value="" style="endArrow=classic;html=1;rounded=0;exitX=0.855;exitY=0;exitDx=0;exitDy=4.35;exitPerimeter=0;entryX=1;entryY=1;entryDx=0;entryDy=0;flowAnimation=1;" edge="1" parent="1" source="Jx2uDM19GwoM_w4hmKZA-1" target="Jx2uDM19GwoM_w4hmKZA-7">
          <mxGeometry width="50" height="50" relative="1" as="geometry">
            <mxPoint x="400" y="350" as="sourcePoint" />
            <mxPoint x="450" y="300" as="targetPoint" />
            <Array as="points">
              <mxPoint x="340" y="530" />
            </Array>
          </mxGeometry>
        </mxCell>
        <mxCell id="Jx2uDM19GwoM_w4hmKZA-21" value="&lt;b&gt;Domain Name&lt;/b&gt;&lt;div&gt;&lt;b&gt;www.google.com&lt;/b&gt;&lt;/div&gt;" style="text;html=1;align=center;verticalAlign=middle;whiteSpace=wrap;rounded=0;" vertex="1" parent="1">
          <mxGeometry x="500" y="115.75" width="100" height="30" as="geometry" />
        </mxCell>
        <mxCell id="Jx2uDM19GwoM_w4hmKZA-23" value="&lt;b&gt;IP address&amp;nbsp;&lt;/b&gt;" style="text;html=1;align=center;verticalAlign=middle;whiteSpace=wrap;rounded=0;" vertex="1" parent="1">
          <mxGeometry x="500" y="206" width="110" height="30" as="geometry" />
        </mxCell>
        <mxCell id="Jx2uDM19GwoM_w4hmKZA-25" value="&lt;b&gt;HTTP Request&lt;/b&gt;" style="text;html=1;align=center;verticalAlign=middle;whiteSpace=wrap;rounded=0;" vertex="1" parent="1">
          <mxGeometry x="210" y="250" width="60" height="30" as="geometry" />
        </mxCell>
        <mxCell id="Jx2uDM19GwoM_w4hmKZA-26" value="&lt;b&gt;HTTP Response&lt;/b&gt;" style="text;html=1;align=center;verticalAlign=middle;whiteSpace=wrap;rounded=0;" vertex="1" parent="1">
          <mxGeometry x="381" y="250" width="60" height="30" as="geometry" />
        </mxCell>
        <mxCell id="Jx2uDM19GwoM_w4hmKZA-29" value="&lt;b&gt;SQL Queries&lt;/b&gt;" style="text;html=1;align=center;verticalAlign=middle;whiteSpace=wrap;rounded=0;" vertex="1" parent="1">
          <mxGeometry x="178" y="500" width="60" height="30" as="geometry" />
        </mxCell>
        <mxCell id="Jx2uDM19GwoM_w4hmKZA-30" value="&lt;b&gt;Query Results&lt;/b&gt;" style="text;html=1;align=center;verticalAlign=middle;whiteSpace=wrap;rounded=0;" vertex="1" parent="1">
          <mxGeometry x="365" y="500" width="60" height="30" as="geometry" />
        </mxCell>
        <mxCell id="Jx2uDM19GwoM_w4hmKZA-31" value="&lt;b&gt;Clients&lt;/b&gt;" style="text;html=1;align=center;verticalAlign=middle;whiteSpace=wrap;rounded=0;" vertex="1" parent="1">
          <mxGeometry x="260" y="70" width="60" height="30" as="geometry" />
        </mxCell>
        <mxCell id="Jx2uDM19GwoM_w4hmKZA-33" value="&lt;b&gt;&lt;font style=&quot;font-size: 24px;&quot;&gt;Single Server Architecture&lt;/font&gt;&lt;/b&gt;" style="text;html=1;align=center;verticalAlign=middle;whiteSpace=wrap;rounded=0;" vertex="1" parent="1">
          <mxGeometry x="235" y="20" width="320" height="30" as="geometry" />
        </mxCell>
        <mxCell id="Jx2uDM19GwoM_w4hmKZA-37" value="&lt;b&gt;&lt;font color=&quot;#0000ff&quot; style=&quot;font-size: 14px;&quot;&gt;1&lt;/font&gt;&lt;/b&gt;" style="text;html=1;align=center;verticalAlign=middle;resizable=0;points=[];autosize=1;strokeColor=none;fillColor=none;" vertex="1" parent="1">
          <mxGeometry x="460" y="115.75" width="30" height="30" as="geometry" />
        </mxCell>
        <mxCell id="Jx2uDM19GwoM_w4hmKZA-39" value="&lt;b&gt;&lt;font color=&quot;#ff00ff&quot; style=&quot;font-size: 14px;&quot;&gt;2&lt;/font&gt;&lt;/b&gt;" style="text;html=1;align=center;verticalAlign=middle;resizable=0;points=[];autosize=1;strokeColor=none;fillColor=none;" vertex="1" parent="1">
          <mxGeometry x="490" y="205.75" width="30" height="30" as="geometry" />
        </mxCell>
        <mxCell id="Jx2uDM19GwoM_w4hmKZA-40" value="&lt;b&gt;&lt;font color=&quot;#00ff00&quot; style=&quot;font-size: 14px;&quot;&gt;3&lt;/font&gt;&lt;/b&gt;" style="text;html=1;align=center;verticalAlign=middle;resizable=0;points=[];autosize=1;strokeColor=none;fillColor=none;" vertex="1" parent="1">
          <mxGeometry x="178" y="250" width="30" height="30" as="geometry" />
        </mxCell>
        <mxCell id="Jx2uDM19GwoM_w4hmKZA-41" value="&lt;b&gt;&lt;font color=&quot;#33ffff&quot; style=&quot;font-size: 14px;&quot;&gt;4&lt;/font&gt;&lt;/b&gt;" style="text;html=1;align=center;verticalAlign=middle;resizable=0;points=[];autosize=1;strokeColor=none;fillColor=none;" vertex="1" parent="1">
          <mxGeometry x="148" y="495" width="30" height="30" as="geometry" />
        </mxCell>
        <mxCell id="Jx2uDM19GwoM_w4hmKZA-42" value="&lt;b&gt;&lt;font color=&quot;#cc0066&quot; style=&quot;font-size: 14px;&quot;&gt;5&lt;/font&gt;&lt;/b&gt;" style="text;html=1;align=center;verticalAlign=middle;resizable=0;points=[];autosize=1;strokeColor=none;fillColor=none;" vertex="1" parent="1">
          <mxGeometry x="339.6" y="500" width="30" height="30" as="geometry" />
        </mxCell>
        <mxCell id="Jx2uDM19GwoM_w4hmKZA-43" value="&lt;b&gt;&lt;font color=&quot;#ff33ff&quot; style=&quot;font-size: 14px;&quot;&gt;5&lt;/font&gt;&lt;/b&gt;" style="text;html=1;align=center;verticalAlign=middle;resizable=0;points=[];autosize=1;strokeColor=none;fillColor=none;" vertex="1" parent="1">
          <mxGeometry x="365" y="240" width="30" height="30" as="geometry" />
        </mxCell>
      </root>
    </mxGraphModel>
  </diagram>
</mxfile>
